<svg width="41" height="41" viewBox="0 0 41 41" fill="none" xmlns="http://www.w3.org/2000/svg">
<circle cx="20.1812" cy="20.2525" r="20.0426" fill="#DBD9EE"/>
<path d="M24.5722 10.8844C21.6706 10.3979 18.6927 10.3979 15.7911 10.8844C14.7311 11.0621 13.8869 11.8759 13.6744 12.9311C12.7007 17.7651 12.6475 22.7393 13.5178 27.593L13.8721 29.5691C13.9813 30.1785 14.7242 30.422 15.173 29.9957L19.4496 25.9328C19.8599 25.5431 20.5035 25.5431 20.9137 25.9328L25.1904 29.9957C25.6392 30.422 26.382 30.1785 26.4913 29.5691L26.8456 27.593C27.7158 22.7393 27.6627 17.7651 26.689 12.9311C26.4764 11.8759 25.6322 11.0621 24.5722 10.8844Z" fill="#6C5FBC"/>
</svg>
