<svg width="397" height="280" viewBox="0 0 397 280" fill="none" xmlns="http://www.w3.org/2000/svg">
<g opacity="0.25">
<path d="M248.774 270.945C252.662 267.182 257.953 264.898 263.789 264.947C269.585 264.996 274.871 267.335 278.81 271.148" stroke="#1C186C" stroke-width="4.63957" stroke-linecap="round" stroke-linejoin="round"/>
<path d="M277.882 262.31C273.689 259.523 268.87 257.934 263.757 257.886C257.765 257.836 252.201 259.928 247.572 263.561C245.697 265.036 245.166 267.924 246.374 270.151L247.64 272.486L252.88 281.993C252.88 281.993 256.6 288.76 260.106 295.142C261.801 298.225 265.743 298.272 267.425 295.235L279.939 272.691L281.171 270.467C282.383 268.264 281.84 265.331 279.929 263.831C279.286 263.274 278.584 262.781 277.882 262.31Z" stroke="#1C186C" stroke-width="4.63957" stroke-linecap="round" stroke-linejoin="round"/>
<path d="M270.744 275.399C271.213 275.614 271.74 275.614 272.208 275.401C272.462 275.294 272.657 275.144 272.853 274.952C273.204 274.546 273.42 274.011 273.42 273.454C273.421 272.877 273.226 272.363 272.856 271.956C272.485 271.549 272.017 271.334 271.49 271.334C270.963 271.333 270.495 271.547 270.124 271.953C269.752 272.359 269.557 272.894 269.556 273.45C269.555 274.007 269.77 274.542 270.12 274.949C270.296 275.163 270.51 275.313 270.744 275.399Z" fill="#201D67"/>
<path d="M263.057 273.294C263.525 273.508 264.052 273.509 264.521 273.295C264.755 273.188 264.97 273.039 265.165 272.846C265.517 272.44 265.732 271.905 265.733 271.349C265.733 270.771 265.539 270.257 265.168 269.85C264.798 269.443 264.33 269.229 263.803 269.228C263.276 269.228 262.807 269.441 262.436 269.847C262.065 270.254 261.869 270.767 261.869 271.345C261.868 271.901 262.082 272.437 262.433 272.844C262.608 273.036 262.803 273.186 263.057 273.294Z" fill="#201D67"/>
<path d="M254.701 274.954C255.423 275.747 256.711 275.748 257.434 274.957C257.785 274.551 258.001 274.016 258.001 273.46C258.002 272.882 257.807 272.368 257.437 271.961C257.067 271.554 256.598 271.339 256.071 271.339C255.818 271.339 255.564 271.403 255.349 271.509C255.115 271.616 254.9 271.766 254.705 271.958C254.333 272.364 254.138 272.878 254.137 273.456C254.156 273.991 254.37 274.547 254.701 274.954Z" fill="#201D67"/>
<path d="M258.148 282.706C258.245 282.984 258.381 283.198 258.557 283.412C259.278 284.205 260.566 284.206 261.289 283.415C261.465 283.201 261.602 282.988 261.7 282.709C261.798 282.453 261.856 282.175 261.857 281.918C261.857 281.64 261.799 281.361 261.701 281.126C261.604 280.869 261.468 280.633 261.292 280.419C260.922 280.012 260.454 279.798 259.927 279.797C259.673 279.797 259.419 279.861 259.205 279.967C258.97 280.074 258.755 280.224 258.56 280.416C258.189 280.822 257.993 281.336 257.993 281.914C257.992 282.17 258.05 282.449 258.148 282.706Z" fill="#201D67"/>
<path d="M265.857 282.714C265.954 282.971 266.09 283.206 266.266 283.421C267.007 284.213 268.295 284.215 268.998 283.424C269.174 283.21 269.311 282.996 269.409 282.718C269.507 282.461 269.565 282.183 269.566 281.926C269.566 281.348 269.372 280.834 269.001 280.427C268.806 280.235 268.592 280.085 268.358 279.977C268.124 279.87 267.87 279.806 267.616 279.805C267.089 279.805 266.621 280.018 266.25 280.424C266.074 280.638 265.937 280.874 265.839 281.13C265.722 281.387 265.682 281.665 265.682 281.922C265.701 282.179 265.74 282.457 265.857 282.714Z" fill="#201D67"/>
<path d="M184.619 207.25C185.872 207.556 187.176 207.514 188.41 207.127C189.645 206.739 190.771 206.019 191.687 205.031C192.075 204.593 192.292 204.006 192.292 203.395C192.293 202.784 192.077 202.197 191.69 201.757L189.468 199.229" stroke="#1C186C" stroke-width="4.63957" stroke-linecap="round" stroke-linejoin="round"/>
<path d="M170.078 190.991C169.811 189.599 169.865 188.156 170.235 186.792C170.604 185.429 171.278 184.188 172.194 183.181C172.388 182.967 172.62 182.796 172.874 182.68C173.129 182.564 173.402 182.505 173.678 182.505C173.954 182.505 174.227 182.565 174.481 182.682C174.736 182.799 174.967 182.97 175.161 183.185L177.422 185.712" stroke="#1C186C" stroke-width="4.63957" stroke-linecap="round" stroke-linejoin="round"/>
<path d="M187.941 185.21C187.137 183.813 186.713 182.194 186.716 180.543C186.718 179.428 186.921 178.325 187.314 177.296C187.707 176.268 188.282 175.336 189.006 174.553C189.143 174.418 189.32 174.343 189.504 174.343C189.688 174.343 189.865 174.418 190.001 174.554C190.639 175.263 191.148 176.099 191.501 177.017C191.823 177.688 192.047 178.41 192.163 179.158C192.207 179.613 192.206 180.072 192.161 180.527C191.808 182.608 190.839 184.503 189.404 185.917C190.734 184.385 192.481 183.366 194.383 183.012C194.799 182.969 195.217 182.97 195.632 183.014C196.315 183.16 196.973 183.421 197.583 183.786C198.423 184.224 199.177 184.835 199.806 185.586C199.929 185.736 199.998 185.93 199.997 186.132C199.997 186.334 199.929 186.528 199.805 186.678C198.343 188.242 196.38 189.116 194.338 189.112C192.84 189.099 191.377 188.615 190.124 187.716" stroke="#1C186C" stroke-width="4.63957" stroke-linecap="round" stroke-linejoin="round"/>
<path d="M165.527 211.959C165.758 212.249 166.02 212.508 166.307 212.73C167.109 213.292 168.005 213.673 168.943 213.85C169.882 214.028 170.843 213.998 171.77 213.763C173.962 213.403 176.078 212.615 178.018 211.437C181.665 209.511 184.73 206.476 186.849 202.694C188.728 198.891 189.794 194.669 189.965 190.348C189.965 190.049 190.299 187.802 190.085 187.652L187.921 185.21C187.785 184.974 185.755 185.207 185.482 185.314C181.522 185.423 177.639 186.54 174.139 188.576C170.667 190.82 167.869 194.127 166.088 198.091C164.367 202.006 162.408 208.232 165.527 211.959Z" stroke="#1C186C" stroke-width="4.63957" stroke-linecap="round" stroke-linejoin="round"/>
<path d="M179.115 209.491C178.327 206.569 176.903 203.902 174.967 201.718C173.022 199.539 170.617 197.919 167.965 197.002" stroke="#1C186C" stroke-width="4.63957" stroke-linecap="round" stroke-linejoin="round"/>
<path d="M170.682 209.418C170.864 209.625 171.082 209.79 171.323 209.903C171.565 210.016 171.824 210.074 172.086 210.075C172.349 210.075 172.609 210.017 172.85 209.905C173.092 209.793 173.31 209.628 173.492 209.421C173.758 209.119 173.938 208.738 174.008 208.325C174.078 207.912 174.035 207.486 173.886 207.099C173.736 206.713 173.487 206.383 173.167 206.151C172.848 205.919 172.474 205.795 172.091 205.794C171.708 205.794 171.334 205.917 171.014 206.148C170.694 206.38 170.444 206.709 170.294 207.095C170.143 207.482 170.1 207.908 170.169 208.321C170.238 208.734 170.417 209.115 170.682 209.418Z" fill="#201D67"/>
<path d="M82.0029 296.941L102.011 275.047C104.141 272.717 104.145 268.95 102.02 266.615C99.8954 264.28 96.4605 264.277 94.3307 266.607L74.3226 288.501C72.1929 290.831 72.1888 294.598 74.3136 296.933C76.4383 299.268 79.8732 299.272 82.0029 296.941Z" stroke="#1C186C" stroke-width="4.63957" stroke-linecap="round" stroke-linejoin="round"/>
<path d="M97.8186 272.133C95.513 274.656 94.6943 273.756 92.3692 276.279C90.0635 278.802 90.8823 279.701 88.5766 282.246C86.271 284.768 85.4328 283.869 83.1271 286.392C80.8215 288.915 81.6402 289.836 79.3346 292.359" stroke="#1C186C" stroke-width="4.63957" stroke-linecap="round" stroke-linejoin="round"/>
<path d="M88.9092 299.474L104.306 282.626C106.866 279.825 106.871 275.309 104.317 272.503L79.6976 299.442C82.2316 302.27 86.3691 302.275 88.9092 299.474Z" stroke="#1C186C" stroke-width="4.63957" stroke-linecap="round" stroke-linejoin="round"/>
<path d="M87.4248 264.075L72.0279 280.922C69.4683 283.723 69.4634 288.239 72.017 291.045L96.6364 264.106C94.1023 261.278 89.9649 261.274 87.4248 264.075Z" stroke="#1C186C" stroke-width="4.63957" stroke-linecap="round" stroke-linejoin="round"/>
<path d="M357.89 61.3263C361.777 57.5638 367.069 55.2795 372.904 55.3286C378.7 55.3776 383.987 57.7161 387.925 61.5298" stroke="#1C186C" stroke-width="4.63957" stroke-linecap="round" stroke-linejoin="round"/>
<path d="M386.997 52.6899C382.804 49.9032 377.985 48.3143 372.872 48.266C366.88 48.2168 361.316 50.3082 356.687 53.9414C354.812 55.4161 354.282 58.3048 355.489 60.5318L356.755 62.8659L361.995 72.3738C361.995 72.3738 365.715 79.1407 369.221 85.5221C370.916 88.6058 374.858 88.6528 376.54 85.6156L389.054 63.0719L390.286 60.8474C391.499 58.6444 390.955 55.7118 389.044 54.2116C388.401 53.6545 387.699 53.1615 386.997 52.6899Z" stroke="#1C186C" stroke-width="4.63957" stroke-linecap="round" stroke-linejoin="round"/>
<path d="M379.86 65.7819C380.328 65.9964 380.855 65.997 381.323 65.7835C381.577 65.6768 381.773 65.5272 381.968 65.3348C382.32 64.9285 382.535 64.3937 382.535 63.8373C382.536 63.2595 382.341 62.7456 381.971 62.3386C381.601 61.9316 381.133 61.717 380.606 61.7165C380.079 61.7159 379.61 61.9294 379.239 62.3356C378.868 62.7419 378.672 63.2767 378.671 63.8331C378.671 64.3896 378.885 64.9248 379.236 65.3318C379.411 65.546 379.626 65.6961 379.86 65.7819Z" fill="#201D67"/>
<path d="M372.172 63.675C372.64 63.8895 373.167 63.8901 373.636 63.6766C373.87 63.5698 374.085 63.4203 374.28 63.2278C374.632 62.8216 374.847 62.2868 374.848 61.7303C374.849 61.1525 374.654 60.6386 374.284 60.2316C373.913 59.8246 373.445 59.6101 372.918 59.6095C372.391 59.609 371.923 59.8225 371.551 60.2287C371.18 60.6349 370.984 61.1483 370.984 61.7262C370.983 62.2826 371.197 62.8179 371.548 63.2249C371.724 63.4177 371.919 63.5677 372.172 63.675Z" fill="#201D67"/>
<path d="M363.818 65.3371C364.539 66.1298 365.827 66.1311 366.55 65.3401C366.902 64.9338 367.117 64.399 367.117 63.8426C367.118 63.2647 366.924 62.7509 366.553 62.3439C366.183 61.9368 365.715 61.7223 365.188 61.7217C364.934 61.7215 364.68 61.7854 364.465 61.8922C364.231 61.9989 364.016 62.1485 363.821 62.3409C363.45 62.7472 363.254 63.2606 363.253 63.8384C363.272 64.3735 363.486 64.9301 363.818 65.3371Z" fill="#201D67"/>
<path d="M367.263 73.0865C367.36 73.3649 367.497 73.579 367.672 73.7932C368.393 74.5858 369.681 74.5872 370.404 73.7961C370.58 73.5823 370.717 73.3685 370.815 73.0903C370.913 72.8336 370.972 72.5555 370.972 72.2986C370.972 72.0204 370.914 71.7421 370.817 71.5066C370.719 71.2497 370.583 71.0141 370.408 70.7999C370.037 70.3929 369.569 70.1784 369.042 70.1778C368.788 70.1776 368.535 70.2415 368.32 70.3483C368.086 70.455 367.871 70.6046 367.675 70.797C367.304 71.2032 367.108 71.7166 367.108 72.2945C367.107 72.5513 367.166 72.8296 367.263 73.0865Z" fill="#201D67"/>
<path d="M374.973 73.0948C375.07 73.3518 375.207 73.5873 375.382 73.8015C376.123 74.5941 377.411 74.5955 378.114 73.8044C378.29 73.5906 378.427 73.3768 378.525 73.0986C378.623 72.8419 378.682 72.5638 378.682 72.3069C378.683 71.7291 378.488 71.2153 378.118 70.8082C377.923 70.6154 377.708 70.4654 377.474 70.3581C377.24 70.2509 376.986 70.1864 376.733 70.1861C376.206 70.1855 375.737 70.399 375.366 70.8053C375.19 71.0191 375.053 71.2544 374.955 71.5111C374.838 71.7678 374.798 72.0459 374.798 72.3028C374.817 72.5596 374.856 72.8379 374.973 73.0948Z" fill="#201D67"/>
<path d="M374.244 79.2372C373.873 78.8302 373.405 78.6157 372.878 78.6151C372.624 78.6148 372.371 78.6788 372.156 78.7855C371.922 78.8923 371.707 79.0419 371.511 79.2343C371.335 79.4481 371.199 79.6834 371.101 79.9401C371.003 80.1968 370.944 80.475 370.944 80.7318C370.943 81.3096 371.157 81.8235 371.508 82.2305C372.054 82.8089 372.893 83.0239 373.615 82.6822C373.869 82.5755 374.065 82.4259 374.26 82.2335C374.612 81.8272 374.827 81.2924 374.827 80.736C374.828 80.4577 374.77 80.1795 374.672 79.9439C374.555 79.687 374.419 79.4514 374.244 79.2372Z" fill="#201D67"/>
<path d="M278.488 28.5929C279.742 28.8995 281.045 28.8572 282.279 28.4698C283.514 28.0823 284.64 27.362 285.556 26.3747C285.944 25.936 286.161 25.3492 286.162 24.7381C286.162 24.1271 285.946 23.5398 285.559 23.1003L283.337 20.5725" stroke="#1C186C" stroke-width="4.63957" stroke-linecap="round" stroke-linejoin="round"/>
<path d="M263.947 12.3339C263.68 10.942 263.734 9.49919 264.104 8.13575C264.473 6.7723 265.147 5.53121 266.063 4.52464C266.258 4.31002 266.489 4.13974 266.744 4.02364C266.998 3.90754 267.271 3.84792 267.547 3.84822C267.823 3.84851 268.096 3.90872 268.35 4.02537C268.605 4.14201 268.836 4.31279 269.03 4.52782L271.291 7.05563" stroke="#1C186C" stroke-width="4.63957" stroke-linecap="round" stroke-linejoin="round"/>
<path d="M281.81 6.55339C281.006 5.15662 280.582 3.53809 280.585 1.88655C280.587 0.771777 280.79 -0.331603 281.183 -1.35976C281.576 -2.38793 282.151 -3.32046 282.875 -4.10341C283.012 -4.23862 283.189 -4.31338 283.373 -4.31318C283.557 -4.31298 283.734 -4.23784 283.871 -4.10235C284.508 -3.39287 285.017 -2.55717 285.371 -1.63956C285.693 -0.968652 285.916 -0.246106 286.032 0.501303C286.076 0.956609 286.075 1.41579 286.03 1.871C285.677 3.95158 284.708 5.84635 283.273 7.26121C284.603 5.72889 286.35 4.70971 288.253 4.35596C288.668 4.31309 289.086 4.31354 289.502 4.3573C290.184 4.50409 290.842 4.76462 291.452 5.12986C292.292 5.5678 293.047 6.17897 293.675 6.92997C293.799 7.07964 293.867 7.27422 293.866 7.47592C293.866 7.67761 293.798 7.87204 293.674 8.02145C292.212 9.58572 290.249 10.4595 288.207 10.4553C286.709 10.4431 285.246 9.95863 283.993 9.05972" stroke="#1C186C" stroke-width="4.63957" stroke-linecap="round" stroke-linejoin="round"/>
<path d="M259.396 33.3018C259.627 33.5922 259.889 33.8512 260.176 34.0731C260.978 34.6348 261.875 35.0155 262.813 35.1929C263.751 35.3703 264.712 35.3408 265.639 35.1063C267.832 34.7454 269.947 33.9576 271.887 32.7802C275.534 30.8538 278.599 27.8187 280.718 24.0365C282.597 20.2337 283.663 16.012 283.834 11.6912C283.834 11.3915 284.169 9.14474 283.954 8.9947L281.79 6.5526C281.654 6.31703 279.624 6.55027 279.351 6.65698C275.391 6.76617 271.508 7.88295 268.008 9.91922C264.536 12.1626 261.738 15.4699 259.957 19.4342C258.236 23.3489 256.277 29.5746 259.396 33.3018Z" stroke="#1C186C" stroke-width="4.63957" stroke-linecap="round" stroke-linejoin="round"/>
<path d="M272.982 30.834C272.194 27.9126 270.77 25.2451 268.834 23.0608C266.889 20.8818 264.484 19.2621 261.833 18.3449" stroke="#1C186C" stroke-width="4.63957" stroke-linecap="round" stroke-linejoin="round"/>
<path d="M264.551 30.7604C264.733 30.9677 264.951 31.1327 265.192 31.2455C265.434 31.3583 265.693 31.4166 265.956 31.4168C266.218 31.4171 266.478 31.3594 266.719 31.2471C266.961 31.1349 267.179 30.9703 267.361 30.7634C267.628 30.4614 267.807 30.0801 267.877 29.6673C267.947 29.2544 267.904 28.8281 267.755 28.4415C267.606 28.0548 267.356 27.725 267.037 27.4929C266.717 27.2609 266.343 27.137 265.96 27.1366C265.577 27.1361 265.203 27.2593 264.883 27.4906C264.563 27.722 264.313 28.0513 264.163 28.4376C264.012 28.8239 263.969 29.2501 264.038 29.6631C264.107 30.0762 264.286 30.4578 264.551 30.7604Z" fill="#201D67"/>
<path d="M80.8525 24.6768L72.8574 0.463059L64.8102 24.6595" stroke="#1C186C" stroke-width="4.63957" stroke-linecap="round" stroke-linejoin="round"/>
<path d="M60.7872 25.7471C61.1189 25.7474 61.4117 25.7263 61.685 25.6838C63.8322 25.3009 64.1268 23.5463 66.82 23.5492C69.845 23.5524 69.8427 25.7568 72.8286 25.76C75.8536 25.7633 75.856 23.5589 78.842 23.5621C81.5352 23.565 81.8066 25.2988 83.9724 25.7078C84.2261 25.7509 84.5383 25.7726 84.8701 25.7729" stroke="#1C186C" stroke-width="4.63957" stroke-linecap="round" stroke-linejoin="round"/>
<path d="M62.7929 29.0455C62.7942 27.8898 62.9516 26.7343 63.2845 25.6859C65.1389 25.3027 65.375 23.548 67.6779 23.5505C70.2736 23.5533 70.2712 25.7577 72.8278 25.7604C75.4235 25.7632 75.4258 23.5588 77.9824 23.5616C80.2854 23.5641 80.5372 25.2979 82.3713 25.7065C82.6824 26.7555 82.8568 27.9113 82.8556 29.067C82.849 35.145 78.355 40.0626 72.8124 40.0566C67.2698 40.0506 62.7864 35.1235 62.7929 29.0455Z" stroke="#1C186C" stroke-width="4.63957" stroke-linecap="round" stroke-linejoin="round"/>
<path d="M62.8007 22.4545L82.8633 22.4761" stroke="#1C186C" stroke-width="4.63957" stroke-linecap="round" stroke-linejoin="round"/>
<path d="M101.969 166.69C96.5632 166.321 91.16 163.725 86.891 158.97C82.6611 154.257 80.3451 148.262 80.0003 142.269" stroke="#1C186C" stroke-width="4.63957" stroke-linecap="round" stroke-linejoin="round"/>
<path d="M77.7793 140.876L80.1805 140.237L104.544 133.735C107.823 132.861 110.689 136.075 109.865 139.712L108.14 147.415L108.022 147.907L106.512 154.604L106.375 155.246L103.825 166.479L103.198 169.218C102.61 171.849 100.285 173.538 97.9049 173.107C92.0512 172.052 86.5508 169.093 82.1649 164.208C77.7985 159.367 75.1704 153.265 74.221 146.779C73.8336 144.125 75.3977 141.516 77.7793 140.876Z" stroke="#1C186C" stroke-width="4.63957" stroke-linecap="round" stroke-linejoin="round"/>
<path d="M92.4864 147.739C90.7619 147.737 89.3621 149.288 89.3601 151.203C89.358 153.117 90.7544 154.671 92.479 154.673C94.2035 154.675 95.6032 153.124 95.6053 151.209C95.6073 149.294 94.211 147.741 92.4864 147.739Z" stroke="#1C186C" stroke-width="4.63957" stroke-linecap="round" stroke-linejoin="round"/>
<path d="M104.038 149.058C105.112 147.861 106.655 147.478 108.02 147.95L106.059 156.68C105.318 156.486 104.616 156.1 104.031 155.457C102.432 153.679 102.435 150.812 104.038 149.058Z" stroke="#1C186C" stroke-width="4.63957" stroke-linecap="round" stroke-linejoin="round"/>
<path d="M101.592 136.855C101.884 138.097 101.589 139.466 100.73 140.428C99.4205 141.882 97.3127 141.88 96.0067 140.423C95.5779 139.952 95.2858 139.374 95.1498 138.753" stroke="#1C186C" stroke-width="4.63957" stroke-linecap="round" stroke-linejoin="round"/>
<path d="M175.904 87.3063L195.912 65.4127C198.042 63.0822 198.046 59.3156 195.921 56.9805C193.797 54.6455 190.362 54.6418 188.232 56.9722L168.224 78.8659C166.094 81.1964 166.09 84.963 168.215 87.2981C170.34 89.6331 173.775 89.6368 175.904 87.3063Z" stroke="#1C186C" stroke-width="4.63957" stroke-linecap="round" stroke-linejoin="round"/>
<path d="M191.72 62.4974C189.414 65.0203 188.596 64.1205 186.271 66.6434C183.965 69.1663 184.784 70.066 182.478 72.6103C180.172 75.1332 179.334 74.2335 177.028 76.7564C174.723 79.2793 175.542 80.2004 173.236 82.7233" stroke="#1C186C" stroke-width="4.63957" stroke-linecap="round" stroke-linejoin="round"/>
<path d="M182.811 89.8399L198.207 72.992C200.767 70.1912 200.772 65.6755 198.218 62.8691L173.599 89.8086C176.133 92.6363 180.27 92.6407 182.811 89.8399Z" stroke="#1C186C" stroke-width="4.63957" stroke-linecap="round" stroke-linejoin="round"/>
<path d="M181.327 54.4398L165.93 71.2877C163.371 74.0885 163.366 78.6042 165.919 81.4106L190.539 54.4711C188.005 51.6434 183.867 51.639 181.327 54.4398Z" stroke="#1C186C" stroke-width="4.63957" stroke-linecap="round" stroke-linejoin="round"/>
<path d="M279.581 135.977L299.097 135.998C302.571 136.001 305.378 139.086 305.374 142.896L305.369 147.005L273.285 146.97L273.289 142.861C273.293 139.052 276.107 135.973 279.581 135.977Z" stroke="#1C186C" stroke-width="4.63957" stroke-linecap="round" stroke-linejoin="round"/>
<path d="M274.274 153.564L304.368 153.596C306.026 153.598 307.375 152.123 307.377 150.304C307.379 148.485 306.034 147.007 304.375 147.005L274.281 146.972C272.622 146.971 271.274 148.446 271.272 150.265C271.27 152.084 272.615 153.562 274.274 153.564Z" stroke="#1C186C" stroke-width="4.63957" stroke-linecap="round" stroke-linejoin="round"/>
<path d="M288.267 171.171L290.336 171.173C298.63 171.182 305.352 163.827 305.361 154.731L305.363 153.597L273.278 153.562L273.277 154.697C273.267 163.792 279.973 171.162 288.267 171.171Z" stroke="#1C186C" stroke-width="4.63957" stroke-linecap="round" stroke-linejoin="round"/>
<path d="M305.586 146.471C304.826 145.571 304.281 144.351 302.856 144.349C301.431 144.347 300.884 145.567 300.121 146.465" stroke="#1C186C" stroke-width="4.63957" stroke-linecap="round" stroke-linejoin="round"/>
<path d="M287.26 146.451C286.5 145.551 285.954 144.331 284.53 144.329C283.086 144.328 282.538 145.547 281.776 146.445" stroke="#1C186C" stroke-width="4.63957" stroke-linecap="round" stroke-linejoin="round"/>
<path d="M275.337 144.341C276.762 144.342 277.307 145.563 278.067 146.462" stroke="#1C186C" stroke-width="4.63957" stroke-linecap="round" stroke-linejoin="round"/>
<path d="M296.413 146.461C295.653 145.561 295.108 144.341 293.683 144.339C292.258 144.338 291.711 145.557 290.949 146.455" stroke="#1C186C" stroke-width="4.63957" stroke-linecap="round" stroke-linejoin="round"/>
</g>
</svg>
